<svg version="1.1" xmlns="http://www.w3.org/2000/svg" xmlns:xlink="http://www.w3.org/1999/xlink" width="85.70395" height="85.73245" viewBox="0,0,85.70395,85.73245"><defs><linearGradient x1="235.18434" y1="96.72741" x2="235.18434" y2="182.40779" gradientUnits="userSpaceOnUse" id="color-1"><stop offset="0" stop-color="#2e2a86"/><stop offset="1" stop-color="#4aaab9"/></linearGradient></defs><g transform="translate(-192.34414,-96.72741)"><g data-paper-data="{&quot;isPaintingLayer&quot;:true}" fill-rule="nonzero" stroke-linejoin="miter" stroke-miterlimit="10" stroke-dasharray="" stroke-dashoffset="0" style="mix-blend-mode: normal"><path d="M192.34415,182.40779v-85.68038h85.68038v85.68038z" fill="url(#color-1)" stroke="none" stroke-width="0" stroke-linecap="butt"/><path d="M231.79422,131.80504c0,0 1.91039,5.51368 2.03597,6.9667c0.29094,3.36639 -1.54782,4.88697 -1.26764,9.93653" data-paper-data="{&quot;index&quot;:null}" fill="none" stroke="#bbb5b0" stroke-width="3.5" stroke-linecap="round"/><path d="M232.08013,119.61965c5.8081,0 10.5165,4.90189 10.5165,10.94868c0,6.04679 -4.7084,10.94868 -10.5165,10.94868c-5.8081,0 -10.5165,-4.90189 -10.5165,-10.94868c0,-6.04679 4.7084,-10.94868 10.5165,-10.94868z" fill="#57b278" stroke="none" stroke-width="0" stroke-linecap="butt"/><path d="M243.49202,113.442c0,0 4.36178,9.01774 4.64648,13.53948c0.69878,11.09812 -2.24796,16.95434 -4.4476,27.85472c-1.39138,6.89503 -3.24122,22.62752 -3.59611,25.69483c-0.03928,0.33953 -0.3994,-0.05753 -0.3994,-0.05753c0,0 -2.19073,-6.10289 -5.21027,-17.95986c-1.42395,-5.59148 -0.99325,-12.60968 -3.83197,-19.43022c-3.17454,-8.43366 -12.99618,-21.47793 -12.99618,-21.47793" fill="none" stroke="#bbb5b0" stroke-width="3.5" stroke-linecap="round"/><path d="M245.60493,147.63261c1.031,-5.8585 5.37082,-8.22936 8.04478,-11.56262c1.61745,-1.84162 4.44057,-3.13166 4.44057,-3.13166" fill="none" stroke="#bbb5b0" stroke-width="3.5" stroke-linecap="round"/><path d="M217.94511,109.74441c6.25896,0 11.33285,5.09539 11.33285,11.38087c0,6.28548 -5.07389,11.38087 -11.33285,11.38087c-6.25896,0 -11.33285,-5.09539 -11.33285,-11.38087c0,-6.28548 5.07389,-11.38087 11.33285,-11.38087z" fill="#61ca87" stroke="none" stroke-width="0" stroke-linecap="butt"/><path d="M243.58807,123.52631c-6.70981,0 -12.14919,-5.24588 -12.14919,-11.71701c0,-6.47113 5.43938,-11.71701 12.14919,-11.71701c6.70981,0 12.14919,5.24588 12.14919,11.71701c0,6.47113 -5.43938,11.71701 -12.14919,11.71701z" fill="#61ca87" stroke="none" stroke-width="0" stroke-linecap="butt"/><path d="M267.93448,132.84229c0,4.8003 -3.71942,8.69172 -8.30755,8.69172c-4.58813,0 -8.30755,-3.89141 -8.30755,-8.69172c0,-4.8003 3.71942,-8.69172 8.30755,-8.69172c4.58813,0 8.30755,3.89141 8.30755,8.69172z" fill="#61ca87" stroke="none" stroke-width="0" stroke-linecap="butt"/><path d="M192.40062,182.45986v-10.31036c0,0 11.90595,1.97564 20.73904,1.97564c9.21294,0 29.78207,-4.58231 45.39526,-5.14601c10.86951,-0.39244 19.51318,1.79538 19.51318,1.79538v11.68535z" fill="#72ad77" stroke="none" stroke-width="0" stroke-linecap="butt"/></g></g></svg>