<svg version="1.1" xmlns="http://www.w3.org/2000/svg" xmlns:xlink="http://www.w3.org/1999/xlink" width="85.70395" height="85.70642" viewBox="0,0,85.70395,85.70642"><defs><linearGradient x1="239.98822" y1="168.75878" x2="239.98822" y2="222.81416" gradientUnits="userSpaceOnUse" id="color-1"><stop offset="0" stop-color="#5ccae5" stop-opacity="0"/><stop offset="1" stop-color="#5ccae5"/></linearGradient><linearGradient x1="240" y1="194.53481" x2="240" y2="222.84019" gradientUnits="userSpaceOnUse" id="color-2"><stop offset="0" stop-color="#f5a738" stop-opacity="0"/><stop offset="1" stop-color="#f5a738"/></linearGradient></defs><g transform="translate(-197.14802,-137.15981)"><g data-paper-data="{&quot;isPaintingLayer&quot;:true}" fill-rule="nonzero" stroke-linejoin="miter" stroke-miterlimit="10" stroke-dasharray="" stroke-dashoffset="0" style="mix-blend-mode: normal"><path d="M197.15981,222.84019v-85.68038h85.68038v85.68038z" fill="#2e2a86" stroke="none" stroke-width="0" stroke-linecap="butt"/><path d="M197.14803,222.81416v-54.05538h85.68038v54.05538z" fill="url(#color-1)" stroke="none" stroke-width="0" stroke-linecap="butt"/><path d="M197.15981,222.84019v-28.30538h85.68038v28.30538z" fill="url(#color-2)" stroke="none" stroke-width="0" stroke-linecap="butt"/><path d="M236.5981,172.21141c0,0 1.91039,5.51368 2.03597,6.9667c0.29094,3.36639 -1.54782,4.88697 -1.26764,9.93653" data-paper-data="{&quot;index&quot;:null}" fill="none" stroke="#bbb5b0" stroke-width="3.5" stroke-linecap="round"/><path d="M238.75901,157.27602c5.8081,0 10.5165,4.90189 10.5165,10.94868c0,6.04679 -4.7084,10.94868 -10.5165,10.94868c-5.8081,0 -10.5165,-4.90189 -10.5165,-10.94868c0,-6.04679 4.7084,-10.94868 10.5165,-10.94868z" fill="#50a16e" stroke="none" stroke-width="0" stroke-linecap="butt"/><path d="M248.2959,153.84837c0,0 4.36178,9.01774 4.64648,13.53948c0.69878,11.09812 -2.24796,16.95434 -4.4476,27.85472c-1.39138,6.89503 -3.24122,22.62752 -3.59611,25.69483c-0.03928,0.33953 -0.3994,-0.05753 -0.3994,-0.05753c0,0 -2.19073,-6.10289 -5.21027,-17.95986c-1.42395,-5.59148 -0.99325,-12.60968 -3.83197,-19.43022c-3.17454,-8.43366 -12.99618,-21.47793 -12.99618,-21.47793" fill="none" stroke="#bbb5b0" stroke-width="3.5" stroke-linecap="round"/><path d="M250.40881,188.03898c1.031,-5.8585 5.37082,-8.22936 8.04478,-11.56262c1.61745,-1.84162 4.44057,-3.13166 4.44057,-3.13166" fill="none" stroke="#bbb5b0" stroke-width="3.5" stroke-linecap="round"/><path d="M223.24899,149.77578c6.25896,0 11.33285,5.09539 11.33285,11.38087c0,6.28548 -5.07389,11.38087 -11.33285,11.38087c-6.25896,0 -11.33285,-5.09539 -11.33285,-11.38087c0,-6.28548 5.07389,-11.38087 11.33285,-11.38087z" fill="#55ab75" stroke="none" stroke-width="0" stroke-linecap="butt"/><path d="M248.89195,163.55767c-6.70981,0 -12.14919,-5.24588 -12.14919,-11.71701c0,-6.47113 5.43938,-11.71701 12.14919,-11.71701c6.70981,0 12.14919,5.24588 12.14919,11.71701c0,6.47113 -5.43938,11.71701 -12.14919,11.71701z" fill="#55ab75" stroke="none" stroke-width="0" stroke-linecap="butt"/><path d="M272.73836,173.24866c0,4.8003 -3.71942,8.69172 -8.30755,8.69172c-4.58813,0 -8.30755,-3.89141 -8.30755,-8.69172c0,-4.8003 3.71942,-8.69172 8.30755,-8.69172c4.58813,0 8.30755,3.89141 8.30755,8.69172z" fill="#53a772" stroke="none" stroke-width="0" stroke-linecap="butt"/><path d="M197.2045,222.86623v-8.50023c0,0 16.03095,2.37879 24.86404,2.37879c13.91485,0 34.11624,-4.55434 48.28308,-6.66908c11.23512,-1.67711 12.50036,-0.9683 12.50036,-0.9683v13.75882z" fill="#72ad77" stroke="none" stroke-width="0" stroke-linecap="butt"/></g></g></svg>